<svg xmlns="http://www.w3.org/2000/svg" viewBox="0 0 121.75 128.54"><defs><style>.cls-1{fill:#001b45;}.cls-2{fill:#44c5fe;}.cls-3{fill:#ffc400;}.cls-4{fill:#fff;}</style></defs><g id="Слой_2" data-name="Слой 2"><g id="Слой_1-2" data-name="Слой 1"><g id="Слой_2-2" data-name="Слой 2"><g id="Слой_1-2-2" data-name="Слой 1-2"><path class="cls-1" d="M58.4.13A16,16,0,0,0,45.32,12.69a19.12,19.12,0,0,0,.26,7.42,19.83,19.83,0,0,0,2.28,4.81c.31.46,2.77,3.07,5.49,5.81l4.74,5,.18,3.93v4l-1.57.4a16.19,16.19,0,0,0-5,2l-1.37.8-2.72-2.69-2.75-2.7-.07-7.18c-.06-6.58-.09-7.3-.44-8.67A15.79,15.79,0,0,0,35.43,15a12.86,12.86,0,0,0-6.59-1.36,13.9,13.9,0,0,0-7.09,1.62A15.59,15.59,0,0,0,14,34.64a16,16,0,0,0,11,9.81c1.44.38,2.08.42,8.84.47l7.32.1,2.78,2.75,2.8,2.76-.66,1a16,16,0,0,0-2.19,5l-.42,1.64-3.89.18h-4l-4.85-4.8c-4.9-4.83-6.32-6-8.49-7a15.84,15.84,0,0,0-12.95.08,15.14,15.14,0,0,0-7.75,7.73A13.19,13.19,0,0,0,0,60.21a15.65,15.65,0,0,0,14.8,16.46,16.68,16.68,0,0,0,2.45-.06,16.22,16.22,0,0,0,7.77-3c.4-.31,2.9-2.71,5.57-5.36l4.85-4.8,4.06.19,3.93,0,.15.8a17.85,17.85,0,0,0,2.56,6.18l.54.8-2.81,2.78-2.8,2.8h-7c-7.56,0-8.33.07-10.83,1A15.25,15.25,0,0,0,18,81.49a15.24,15.24,0,0,0-4.88,10.58,15.47,15.47,0,0,0,4.25,11.78,15.18,15.18,0,0,0,6.92,4.41c1.45.49,1.78.52,4.5.52a12.44,12.44,0,0,0,4.38-.4,15.93,15.93,0,0,0,9.74-8c1.71-3.34,2-5.19,2-13.88V80.67l2.8-2.81,2.78-2.81.8.55A22,22,0,0,0,56.74,78a19.67,19.67,0,0,0,8.57-.09,20.18,20.18,0,0,0,5.41-2.45l.57-.44L74,77.88l2.76,2.81.09,7.21C77,95.67,77,96.36,78,98.83a15.94,15.94,0,0,0,8,8.57c2.6,1.2,3.55,1.4,6.9,1.38,2.72,0,3,0,4.5-.52a15.13,15.13,0,0,0,6.92-4.41,15.63,15.63,0,0,0,4.14-8.46,19.81,19.81,0,0,0-.32-6.38,16.25,16.25,0,0,0-9.52-10.83c-2.6-1-3.5-1.09-11.11-1.09H80.65l-2.84-2.85L75,71.41l.56-.81a18.26,18.26,0,0,0,2.59-6.29l.15-.82H86l5.16,5.09c4.26,4.21,5.42,5.26,6.63,6a16.45,16.45,0,0,0,12.31,1.71,18.68,18.68,0,0,0,5.77-3,16.75,16.75,0,0,0,5.34-8.15,17.29,17.29,0,0,0,.22-7.37,15.89,15.89,0,0,0-12.62-12.38,16.42,16.42,0,0,0-9.36,1.1c-2.19,1-3.62,2.15-8.56,7L86,58.17l-3.91.18h-4l-.42-1.66a17,17,0,0,0-2.17-5.11l-.65-1,2.8-2.78L80.5,45l7.28-.07c7.83-.07,8.23-.13,10.86-1.16a15.91,15.91,0,0,0,9.78-12.34,20.3,20.3,0,0,0-.29-6.46A20,20,0,0,0,105,19a15.89,15.89,0,0,0-26.75,3.45C77,25.13,76.91,25.91,76.82,34l-.09,7.32L74,44.09l-2.74,2.73L69.93,46a15.8,15.8,0,0,0-5-2.07l-1.57-.42v-7.8l4.93-5c5.07-5.11,5.67-5.83,6.74-8A16.13,16.13,0,0,0,75.52,9.9,15.69,15.69,0,0,0,61.39,0,17.56,17.56,0,0,0,58.4.13Z"/><path class="cls-1" d="M54.58,96.5c-3.4,3.42-6.43,6.58-6.72,7a15.32,15.32,0,0,0-2.76,8.37A14.93,14.93,0,0,0,47.38,121a15.83,15.83,0,0,0,21.78,5.17,15.65,15.65,0,0,0,3.22-2.62,16.17,16.17,0,0,0,1.49-20c-.52-.76-12.75-13.23-13-13.23C60.79,90.31,58,93.1,54.58,96.5Z"/><path class="cls-2" d="M56.3,101.19c-2.46,2.48-4.65,4.76-4.86,5.1a11.13,11.13,0,0,0-2,6.06,10.79,10.79,0,0,0,1.65,6.56,11.45,11.45,0,0,0,15.76,3.72,11.32,11.32,0,0,0,2.31-1.88,11.7,11.7,0,0,0,1.08-14.46c-.37-.55-9.23-9.58-9.4-9.58S58.75,98.73,56.3,101.19Z"/><ellipse class="cls-3" cx="60.84" cy="60.94" rx="12.65" ry="12.66"/><path class="cls-4" d="M81.67,88.12c-.07,3.49-.08,6.65,0,7a11.13,11.13,0,0,0,2.74,5.77,10.8,10.8,0,0,0,5.72,3.61A11.47,11.47,0,0,0,104.48,93.4a11.72,11.72,0,0,0-9.2-11.21c-.65-.14-13.29-.57-13.41-.45S81.75,84.65,81.67,88.12Z"/><path class="cls-4" d="M95.14,65.44c2.48,2.46,4.76,4.65,5.1,4.86a11.16,11.16,0,0,0,6.06,2,10.75,10.75,0,0,0,6.56-1.65,11.44,11.44,0,0,0,3.72-15.76,11.32,11.32,0,0,0-1.88-2.31,11.7,11.7,0,0,0-14.46-1.08c-.55.37-9.58,9.23-9.58,9.4S92.68,63,95.14,65.44Z"/><path class="cls-4" d="M87.73,40.43c3.49,0,6.65-.07,7-.16a11.15,11.15,0,0,0,5.7-2.87,10.75,10.75,0,0,0,3.47-5.8A11.44,11.44,0,0,0,92.48,17.51a11.72,11.72,0,0,0-11,9.45c-.13.65-.25,13.3-.13,13.43S84.25,40.44,87.73,40.43Z"/><path class="cls-4" d="M65.4,27.71c2.46-2.48,4.65-4.76,4.86-5.1a11.16,11.16,0,0,0,2-6.06A10.75,10.75,0,0,0,70.61,10,11.44,11.44,0,0,0,54.85,6.27a11.32,11.32,0,0,0-2.31,1.88,11.7,11.7,0,0,0-1.08,14.46c.37.55,9.23,9.58,9.4,9.58S63,30.17,65.4,27.71Z"/><path class="cls-4" d="M40.37,34c0-3.5-.13-6.66-.23-7a11.11,11.11,0,0,0-2.91-5.68,10.81,10.81,0,0,0-5.83-3.43,11.46,11.46,0,0,0-14,11.59A11.7,11.7,0,0,0,27,40.32c.65.13,13.3.15,13.42,0S40.4,37.44,40.37,34Z"/><path class="cls-4" d="M26.74,56.39c-2.48-2.46-4.76-4.65-5.1-4.86a11.07,11.07,0,0,0-6.06-2A10.75,10.75,0,0,0,9,51.18,11.46,11.46,0,0,0,5.29,66.94a11.93,11.93,0,0,0,1.89,2.31,11.72,11.72,0,0,0,14.46,1.08c.55-.37,9.58-9.23,9.58-9.4S29.2,58.84,26.74,56.39Z"/><path class="cls-4" d="M33.58,81.88c-3.49.14-6.65.33-7,.43A11.13,11.13,0,0,0,21,85.4a10.82,10.82,0,0,0-3.25,5.93,11.46,11.46,0,0,0,9,13.45,11.9,11.9,0,0,0,3,.19A11.71,11.71,0,0,0,40.33,95.1c.1-.66-.25-13.3-.38-13.42S37.05,81.74,33.58,81.88Z"/></g></g></g></g></svg>