<svg width="44" height="44" viewBox="0 0 44 44" fill="none" xmlns="http://www.w3.org/2000/svg">
<g clip-path="url(#clip0_84_856)">
<path d="M42.6236 21.7067C41.1525 20.4943 38.8272 20.3903 37.301 22.0282L33.5123 26.0953C33.0224 24.521 31.5521 23.3747 29.8189 23.3747H23.0578C22.5448 23.3747 22.373 23.1788 21.4818 22.4922C18.084 19.5301 12.9805 19.5396 9.59303 22.5206L7.10789 24.7084C5.99079 24.1171 4.68634 24.1025 3.56314 24.6637L0.712766 26.0884C0.0759694 26.4073 -0.181757 27.1815 0.136126 27.8183L7.87007 43.2861C8.1889 43.9229 8.96311 44.1806 9.59991 43.8627L12.4503 42.4371C13.8553 41.7351 14.6372 40.3016 14.5865 38.8426H29.8189C32.6434 38.8426 35.3426 37.4935 37.0372 35.2335L43.2252 26.9823C44.4256 25.383 44.2357 23.0378 42.6236 21.7067ZM11.297 40.1315L9.59982 40.9805L3.0183 27.8183L4.71634 26.9693C5.35313 26.6513 6.12649 26.9083 6.44531 27.5459L11.8736 38.4026C12.1916 39.0393 11.9338 39.8127 11.297 40.1315ZM41.1628 25.4354L34.9748 33.6866C33.7641 35.3013 31.8366 36.2646 29.8189 36.2646H13.6868L8.85655 26.6032L11.2961 24.4558C13.7237 22.3203 17.3845 22.3203 19.812 24.4558C21.2419 25.7147 22.1313 25.9527 23.0577 25.9527H29.8189C30.5296 25.9527 31.1078 26.5311 31.1078 27.2417C31.1078 27.9523 30.5295 28.5307 29.8189 28.5307H23.2356C22.524 28.5307 21.9466 29.1082 21.9466 29.8197C21.9466 30.5312 22.5241 31.1087 23.2356 31.1087H30.6825C31.7524 31.1087 32.7836 30.6601 33.5123 29.8773L39.1872 23.7855C39.7063 23.2286 40.502 23.275 40.9901 23.7021C41.5005 24.1489 41.5556 24.9129 41.1628 25.4354Z" fill="#1D191F"/>
<path d="M27.1034 8.79715C27.9859 7.87168 28.5299 6.62052 28.5299 5.24294C28.5299 2.40546 26.2373 0.00109863 23.374 0.00109863C20.5322 0.00109863 18.1322 2.40116 18.1322 5.24294C18.1322 6.57833 18.6555 7.83894 19.6059 8.80746C17.2488 10.1291 15.5542 12.6658 15.5542 15.6408V16.9298C15.5542 17.6412 16.1317 18.2187 16.8432 18.2187H29.819C30.5304 18.2187 31.1079 17.6412 31.1079 16.9298V15.6408C31.1079 12.7242 29.5037 10.148 27.1034 8.79715ZM23.374 2.57914C24.7713 2.57914 25.9519 3.79936 25.9519 5.24303C25.9519 6.66435 24.7953 7.82098 23.374 7.82098C21.9303 7.82098 20.7101 6.64029 20.7101 5.24303C20.7101 3.82429 21.9553 2.57914 23.374 2.57914ZM18.1322 15.6408C18.1322 12.799 20.5322 10.3989 23.374 10.3989C26.2166 10.3989 28.5299 12.75 28.5299 15.6408H18.1322Z" fill="#1D191F"/>
</g>
<defs>
<clipPath id="clip0_84_856">
<rect width="44" height="44" fill="white"/>
</clipPath>
</defs>
</svg>
