<svg width="38" height="42" viewBox="0 0 38 42" fill="none" xmlns="http://www.w3.org/2000/svg">
<path d="M10.4062 28.7344H1.8125C1.33787 28.7344 0.953125 29.1192 0.953125 29.5938V40.7656C0.953125 41.2402 1.33787 41.625 1.8125 41.625H10.4062C10.8809 41.625 11.2656 41.2402 11.2656 40.7656V29.5938C11.2656 29.1192 10.8809 28.7344 10.4062 28.7344ZM9.54688 39.9062H2.67188V30.4531H9.54688V39.9062Z" fill="#1D191F"/>
<path d="M23.2969 22.7188H14.7031C14.2285 22.7188 13.8438 23.1036 13.8438 23.5781V40.7656C13.8438 41.2402 14.2285 41.625 14.7031 41.625H23.2969C23.7714 41.625 24.1562 41.2402 24.1562 40.7656V23.5781C24.1562 23.1036 23.7714 22.7188 23.2969 22.7188ZM22.4375 39.9062H15.5625V24.4375H22.4375V39.9062Z" fill="#1D191F"/>
<path d="M36.1875 13.2656H27.5938C27.1192 13.2656 26.7344 13.6504 26.7344 14.125V40.7656C26.7344 41.2402 27.1192 41.625 27.5938 41.625H36.1875C36.662 41.625 37.0469 41.2402 37.0469 40.7656V14.125C37.0469 13.6504 36.662 13.2656 36.1875 13.2656ZM35.3281 39.9062H28.4531V14.9844H35.3281V39.9062Z" fill="#1D191F"/>
<path d="M32.75 35.6094C33.2245 35.6094 33.6094 35.2245 33.6094 34.75V20.1406C33.6094 19.666 33.2245 19.2812 32.75 19.2812C32.2755 19.2812 31.8906 19.666 31.8906 20.1406V34.75C31.8906 35.2245 32.2755 35.6094 32.75 35.6094Z" fill="#1D191F"/>
<path d="M1.50362 20.357L3.47906 21.8546L2.76123 24.2274C2.65527 24.5775 2.78263 24.9564 3.0786 25.1714C3.37456 25.3865 3.77426 25.3905 4.07461 25.1815L6.10935 23.7657L8.1441 25.1817C8.29174 25.2844 8.46335 25.3357 8.63488 25.3357C9.21075 25.3357 9.62411 24.7783 9.45748 24.2275L8.73964 21.8547L10.7151 20.3571C11.0067 20.1361 11.1263 19.7547 11.0132 19.4067C10.9001 19.0588 10.5791 18.8205 10.2134 18.8131L7.73495 18.7626L6.92103 16.4211C6.80098 16.0754 6.47519 15.8438 6.10935 15.8438C5.74352 15.8438 5.41773 16.0754 5.29759 16.421L4.48367 18.7625L2.00524 18.813C1.63949 18.8205 1.31851 19.0587 1.20542 19.4066C1.09241 19.7546 1.21203 20.136 1.50362 20.357V20.357ZM5.1166 20.4687C5.47599 20.4614 5.79285 20.2312 5.91084 19.8917L6.10935 19.3205L6.30787 19.8917C6.42595 20.2312 6.7428 20.4613 7.1021 20.4687L7.70659 20.481L7.22474 20.8463C6.93831 21.0635 6.81731 21.436 6.92138 21.78L7.09643 22.3587L6.60014 22.0133C6.30546 21.8083 5.9141 21.8076 5.61839 22.0133L5.1221 22.3587L5.29716 21.78C5.40123 21.436 5.28023 21.0635 4.9938 20.8463L4.51195 20.481L5.1166 20.4687Z" fill="#1D191F"/>
<path d="M14.3942 14.3414L16.3697 15.839L15.6519 18.2118C15.5459 18.562 15.6733 18.9408 15.9692 19.1559C16.2652 19.371 16.665 19.375 16.9652 19.166L19 17.7501L21.0348 19.1661C21.1824 19.2688 21.3542 19.3201 21.5257 19.3201C22.1015 19.3201 22.515 18.7627 22.3482 18.2118L21.6304 15.8391L23.6056 14.3415C23.8972 14.1204 24.0168 13.7391 23.9038 13.3911C23.7908 13.0431 23.4698 12.8049 23.104 12.7974L20.6256 12.747L19.8116 10.4055C19.6916 10.0597 19.3658 9.82812 19 9.82812C18.6341 9.82812 18.3084 10.0597 18.1882 10.4054L17.3743 12.7469L14.8959 12.7974C14.5301 12.8048 14.2091 13.043 14.096 13.391C13.983 13.739 14.1027 14.1204 14.3942 14.3414V14.3414ZM18.0072 14.4531C18.3666 14.4458 18.6835 14.2156 18.8015 13.876L19.0001 13.3049L19.1987 13.876C19.3167 14.2156 19.6335 14.4457 19.9928 14.4531L20.5973 14.4654L20.1156 14.8306C19.8292 15.0478 19.7082 15.4203 19.8123 15.7643L19.9873 16.343L19.491 15.9977C19.196 15.7924 18.8044 15.7924 18.5093 15.9977L18.013 16.343L18.188 15.7643C18.2921 15.4203 18.1711 15.0478 17.8847 14.8306L17.4029 14.4654L18.0072 14.4531Z" fill="#1D191F"/>
<path d="M27.2849 4.88827L29.2602 6.3859L28.5423 8.75863C28.4364 9.10883 28.5637 9.48764 28.8597 9.70274C29.1557 9.91767 29.5554 9.9218 29.8557 9.71288L31.8906 8.29698L33.9255 9.71297C34.0731 9.81566 34.2448 9.86697 34.4163 9.86697C34.9921 9.86697 35.4056 9.30958 35.2388 8.75872L34.521 6.38598L36.4963 4.88835C36.7879 4.66732 36.9075 4.28593 36.7945 3.93797C36.6815 3.59001 36.3604 3.35179 35.9947 3.34431L33.5162 3.29387L32.7022 0.952328C32.5823 0.606602 32.2565 0.375 31.8906 0.375C31.5248 0.375 31.199 0.606601 31.0789 0.952242L30.2649 3.29378L27.7865 3.34423C27.4208 3.3517 27.0998 3.58992 26.9867 3.93788C26.8736 4.28584 26.9934 4.66723 27.2849 4.88827V4.88827ZM30.8979 4.99998C31.2573 4.99268 31.574 4.76245 31.692 4.42291L31.8906 3.85177L32.0892 4.42291C32.2072 4.76245 32.5241 4.99259 32.8834 4.99998L33.4879 5.01227L33.0062 5.37751C32.7198 5.59467 32.5988 5.96712 32.7028 6.31122L32.8779 6.88992L32.3816 6.54454C32.0865 6.33923 31.6949 6.33923 31.3998 6.54454L30.9035 6.88992L31.0786 6.31122C31.1827 5.96721 31.0617 5.59467 30.7752 5.37751L30.2936 5.01227L30.8979 4.99998Z" fill="#1D191F"/>
</svg>
