<svg xmlns="http://www.w3.org/2000/svg" viewBox="0 0 662.92 699.36"><defs><style>.cls-1{fill:#001b45;}.cls-2{fill:#44c5fe;}.cls-3{fill:#ffc400;}</style></defs><g id="Слой_2" data-name="Слой 2"><g id="Слой_1-2" data-name="Слой 1"><path class="cls-1" d="M317.84.58c-36.5,6.6-63.3,32.4-71.2,68.4-2.3,10.4-1.6,29.8,1.4,40.4a106.18,106.18,0,0,0,12.4,26.2c1.7,2.5,15.1,16.7,29.9,31.6l25.8,27,1,21.4-.3,21.68-8.53,2.17c-10.43,2.58-17.24,5.44-27,11.18L273.92,255l-14.84-14.64-14.94-14.73-.4-39.07c-.31-35.8-.51-39.76-2.41-47.17A86,86,0,0,0,192.8,81.79c-13-6-20.16-7.42-35.9-7.42-16.25.1-24.87,2.07-38.61,8.8A85,85,0,0,0,75.88,188.6C85.6,214.71,108.36,235,135.94,242c7.82,2.07,11.33,2.27,48.13,2.57l39.71.49L238.92,260l15.24,15-3.61,5.34a86.16,86.16,0,0,0-11.93,27.3l-2.3,8.9-21.18,1-22,.2-26.41-26.12c-26.71-26.31-34.46-32.76-46.27-37.93-22.24-9.93-48.95-9.73-70.5.4-19.76,9.23-33.06,22.54-42.2,42.1C2.5,307.45.81,314.4.12,327.7c-2.68,52.43,41.2,94.13,93.93,89.27,14.49-1.29,30.88-7.55,42.29-16.09,2.19-1.69,15.79-14.79,30.29-29.19L193,345.58l22.1,1,21.42.29.79,4.36c1.69,10.09,7.72,24.53,14,33.63l3,4.35-15.33,15.13L223.7,419.58H185.37c-41.15,0-45.35.4-59,5.53a83.49,83.49,0,0,0-28.63,18.43c-16.62,15.91-25.23,34.73-26.53,57.59-1.3,24.76,6.51,46.61,23.12,64.13C105.88,577.54,116,584,132,589.32c7.91,2.62,9.71,2.82,24.53,2.82,13.71.1,17.12-.2,23.82-2.21a86.8,86.8,0,0,0,53.06-43.29c9.32-18.23,10.82-28.3,10.72-75.62l-.1-31.71L259.25,424l15.12-15.31,4.41,3c7.2,4.84,20.62,10.68,30,13.09,13.22,3.32,33.24,3.12,46.65-.5,9.72-2.62,23.53-8.86,29.44-13.29l3.1-2.42,15.12,15.31,15,15.3.5,39.26c.5,42.29.9,46,6.3,59.51a86.3,86.3,0,0,0,43.45,46.61c14.12,6.55,19.33,7.65,37.55,7.55,14.81,0,16.62-.2,24.53-2.82,16-5.33,26.13-11.78,37.64-24.06a84.74,84.74,0,0,0,22.53-46c1.4-9.16.6-26.28-1.71-34.73-7.11-26.58-27.23-49.44-51.86-59-14.11-5.44-19-5.94-60.47-5.94H439l-15.42-15.51L408,388.67l3-4.43c6.31-9.26,12.41-24,14.11-34.23l.81-4.43h42.49l28.1,27.7c23.2,22.9,29.5,28.6,36.1,32.5a89.46,89.46,0,0,0,67,9.3c8.8-2.2,23.3-9.7,31.4-16.1,13.3-10.7,24.2-27.3,29.1-44.4,3.2-11.3,3.7-27.9,1.2-40.1a86.55,86.55,0,0,0-68.7-67.4,89.46,89.46,0,0,0-51,6c-11.9,5.2-19.7,11.7-46.6,38.2l-26.6,25.3-21.3,1-21.48-.3-2.31-9a92.35,92.35,0,0,0-11.83-27.82L408,274.9l15.24-15.16,15.14-15.16,39.61-.4c42.62-.41,44.82-.71,59.16-6.33,28.08-11,48.34-36.65,53.25-67.18,1.4-9.24.7-26.41-1.61-35.14-2.5-9.34-10.73-25.41-16.94-32.84A87.75,87.75,0,0,0,510,71.06c-34.6-2.41-68.89,18.18-83.73,50.41-7,15.26-7.62,19.48-8.12,63.86l-.5,39.87L402.79,240,388,254.82l-7.32-4.62c-8.82-5.42-15.44-8.23-27-11.25l-8.52-2.31V194.18l26.8-27c27.6-27.8,30.9-31.7,36.7-43.6,10.4-20.9,11.3-47.6,2.4-69.8A85.36,85.36,0,0,0,334.14.08C327.84-.12,320.44.08,317.84.58Zm23.8,28.5c34.4,6.1,56,43.2,44.2,75.7-4.2,11.6-7.4,15.7-31.3,39.8l-23.4,23.5-22.8-22.8c-13.6-13.6-24.2-25.1-26.2-28.3-8-13.2-10.9-29.8-7.6-43.8,5.2-22,24-40.1,45.7-44.1C329.84,27.38,332,27.38,341.64,29.08Zm-167,73.6c18.6,5.8,34.1,22.2,39,41.4,1.2,4.7,1.5,12.6,1.5,38.7v32.8h-33.3c-37,0-39.9-.4-51.6-6.5a53.81,53.81,0,0,1-20.5-18.2c-16-23.5-13.2-53.8,6.8-73.8A57.49,57.49,0,0,1,174.64,102.68Zm340.8-1.6a56.11,56.11,0,0,1,30.3,16c20,20,22.8,50.3,6.8,73.8a53.81,53.81,0,0,1-20.5,18.2c-11.7,6.1-14.6,6.5-51.6,6.5h-33.3v-32.8c0-26.1.3-34,1.5-38.7,5.7-22.3,25.2-40.2,47.5-43.4C504.24,99.48,506.84,99.48,515.44,101.08ZM96.94,275.18c16,3.3,22.1,7.7,50.2,35.9l20.5,20.5-24,23.8c-25.9,25.7-30.5,29.1-44.1,32.6-7.2,1.9-19,2.1-26.6.5-18.9-3.9-35.9-19-42.4-37.8-11.2-32.3,9-68.3,42.6-75.5C81.84,273.28,87.74,273.28,96.94,275.18Zm491.7-.1c28.1,5.9,48.2,32.4,46.1,60.8a58.42,58.42,0,0,1-39.2,50.8c-8.3,3-23.7,3.7-32.4,1.4-14.1-3.6-18.5-6.9-44.5-32.7l-24-23.8,17-17.1c30.1-30.3,37.8-36,53-39.2A51.28,51.28,0,0,1,588.64,275.08Zm-373.5,205.1c0,37-.5,40.8-6.8,52.7-14.3,27.4-48.3,38.2-77,24.5-12.9-6.2-25.3-21-29.7-35.6-4-13.1-2.5-28.4,4-42.2,4.7-9.8,15.9-21.1,25.8-25.9,11.1-5.5,15.7-6,51.5-6.1l32.2-.1ZM518,449.08c10.8,2.6,18.8,7.1,27.2,15.5,18.6,18.4,22.8,43,11.4,66.6-14.7,30.2-51.5,41.3-81.3,24.2-8.8-5-17.5-14.5-22.1-24.1a72.47,72.47,0,0,1-5-13.5c-.7-3.2-1.1-18.2-1.1-37.7v-32.5h32.3C504.74,447.58,513,448,518,449.08Z"/><path class="cls-1" d="M297,525.28c-18.5,18.6-35,35.8-36.6,38.3-9.7,14.4-14.2,28.2-15,45.6-.9,18.9,3,34.2,12.4,49.3,30,48.2,97.4,55,135.9,13.9,16.7-17.9,24.2-38.4,23.1-63.2-.8-17.4-5.3-31.2-15-45.6-2.8-4.1-69.4-72-70.7-72C330.84,491.58,315.44,506.78,297,525.28Z"/><path class="cls-2" d="M306.43,550.83c-13.39,13.47-25.34,25.92-26.49,27.73a60.4,60.4,0,0,0-10.86,33c-.65,13.68,2.17,24.76,9,35.69,21.72,34.89,70.51,39.81,98.39,10.06,12.09-13,17.52-27.8,16.72-45.75a60.48,60.48,0,0,0-10.86-33c-2-3-50.24-52.13-51.18-52.13C330.9,526.43,319.75,537.44,306.43,550.83Z"/><ellipse class="cls-3" cx="331.11" cy="331.65" rx="68.89" ry="68.95"/></g></g></svg>