<svg xmlns="http://www.w3.org/2000/svg" viewBox="0 0 121.76 128.46"><defs><style>.cls-1{fill:#001b45;}.cls-2{fill:#44c5fe;}.cls-3{fill:#ffc400;}</style></defs><g id="Слой_2" data-name="Слой 2"><g id="Слой_1-2" data-name="Слой 1"><path class="cls-1" d="M58.38.11A16,16,0,0,0,45.3,12.67a19.16,19.16,0,0,0,.26,7.42,19.39,19.39,0,0,0,2.28,4.81c.31.46,2.77,3.07,5.49,5.81l4.74,5,.18,3.93,0,4-1.57.4a16.34,16.34,0,0,0-5,2.05l-1.37.8-2.72-2.69-2.75-2.7-.07-7.18c-.06-6.58-.09-7.3-.44-8.67A15.84,15.84,0,0,0,35.41,15a12.91,12.91,0,0,0-6.59-1.36,13.86,13.86,0,0,0-7.09,1.62,15.58,15.58,0,0,0-7.79,19.36,16,16,0,0,0,11,9.81c1.44.38,2.08.42,8.84.47L41.1,45l2.78,2.75,2.8,2.76-.66,1a15.77,15.77,0,0,0-2.19,5l-.42,1.64-3.89.18-4.05,0-4.85-4.8c-4.9-4.83-6.32-6-8.49-7a15.88,15.88,0,0,0-12.95.08,15.14,15.14,0,0,0-7.75,7.73A13.19,13.19,0,0,0,0,60.19a15.65,15.65,0,0,0,17.25,16.4,16.17,16.17,0,0,0,7.77-3c.4-.31,2.9-2.71,5.57-5.36l4.85-4.8,4.06.19,3.93.05.15.8a17.73,17.73,0,0,0,2.56,6.18l.54.8-2.81,2.78-2.8,2.8h-7c-7.56,0-8.33.07-10.83,1A15.18,15.18,0,0,0,18,81.47a15.23,15.23,0,0,0-4.88,10.58,15.46,15.46,0,0,0,4.25,11.78,15.08,15.08,0,0,0,6.92,4.41c1.45.49,1.78.52,4.5.52a12.28,12.28,0,0,0,4.38-.4,15.91,15.91,0,0,0,9.74-8c1.71-3.34,2-5.19,2-13.88l0-5.83,2.8-2.81,2.78-2.81.8.55A21.56,21.56,0,0,0,56.72,78a19.52,19.52,0,0,0,8.57-.09,20.12,20.12,0,0,0,5.41-2.45l.57-.44L74,77.86l2.76,2.81.09,7.21c.1,7.77.17,8.46,1.16,10.93a15.88,15.88,0,0,0,8,8.57c2.6,1.2,3.55,1.4,6.9,1.38,2.72,0,3,0,4.5-.52a15.08,15.08,0,0,0,6.92-4.41,15.64,15.64,0,0,0,4.14-8.46,20,20,0,0,0-.32-6.38,16.29,16.29,0,0,0-9.52-10.83c-2.6-1-3.5-1.09-11.11-1.09H80.63l-2.84-2.85-2.85-2.83.56-.81a18.48,18.48,0,0,0,2.59-6.29l.15-.82H86l5.16,5.09c4.26,4.21,5.42,5.26,6.63,6a16.42,16.42,0,0,0,12.31,1.71,18.73,18.73,0,0,0,5.77-3,16.72,16.72,0,0,0,5.34-8.15,17.38,17.38,0,0,0,.22-7.37,15.9,15.9,0,0,0-12.62-12.38,16.46,16.46,0,0,0-9.36,1.1c-2.19,1-3.62,2.15-8.56,7L86,58.15l-3.91.18-3.95,0-.42-1.66a17,17,0,0,0-2.17-5.11l-.65-1,2.8-2.78,2.78-2.79,7.28-.07c7.83-.07,8.23-.13,10.86-1.16a15.9,15.9,0,0,0,9.78-12.34,20.52,20.52,0,0,0-.29-6.46,20.33,20.33,0,0,0-3.11-6,15.88,15.88,0,0,0-26.75,3.45C77,25.11,76.89,25.89,76.8,34l-.09,7.32L74,44.07,71.26,46.8,69.91,46a15.87,15.87,0,0,0-5-2.07l-1.57-.42v-7.8l4.93-5c5.07-5.11,5.67-5.83,6.74-8A16.13,16.13,0,0,0,75.5,9.88,15.7,15.7,0,0,0,61.37,0,19.07,19.07,0,0,0,58.38.11Zm4.37,5.23a10.68,10.68,0,0,1,8.12,13.91c-.77,2.13-1.36,2.88-5.75,7.31l-4.3,4.31-4.19-4.19a59.2,59.2,0,0,1-4.81-5.19,11.11,11.11,0,0,1-1.39-8,11,11,0,0,1,8.39-8.1A8.42,8.42,0,0,1,62.75,5.34ZM32.08,18.86a11,11,0,0,1,7.16,7.6c.22.87.28,2.32.28,7.11v6H33.4c-6.8,0-7.33-.08-9.48-1.2a9.79,9.79,0,0,1-3.76-3.34,10.65,10.65,0,0,1,11.92-16.2Zm62.59-.29a10.24,10.24,0,0,1,5.57,2.93,10.55,10.55,0,0,1,1.25,13.56,9.82,9.82,0,0,1-3.77,3.34c-2.15,1.12-2.68,1.2-9.48,1.2H82.13v-6c0-4.79.05-6.24.27-7.11a10.91,10.91,0,0,1,8.73-8A8.16,8.16,0,0,1,94.67,18.57Zm-76.86,32c2.93.61,4.05,1.42,9.22,6.6l3.76,3.76-4.41,4.37c-4.75,4.72-5.6,5.35-8.1,6a12.32,12.32,0,0,1-4.88.09,10.85,10.85,0,0,1-7.79-6.94,10.73,10.73,0,0,1,7.82-13.87A9.26,9.26,0,0,1,17.81,50.54Zm90.31,0A10.63,10.63,0,0,1,109.39,71a12.39,12.39,0,0,1-6,.26c-2.58-.66-3.39-1.27-8.17-6L90.85,60.9,94,57.76c5.52-5.56,6.94-6.61,9.73-7.2A9.27,9.27,0,0,1,108.12,50.53ZM39.52,88.2c0,6.79-.1,7.49-1.25,9.68a10.7,10.7,0,0,1-14.15,4.5,11.47,11.47,0,0,1-5.45-6.54,10.92,10.92,0,0,1,.73-7.75,11.62,11.62,0,0,1,4.74-4.76c2-1,2.89-1.1,9.46-1.12l5.92,0Zm55.63-5.72a10,10,0,0,1,5,2.85,10.23,10.23,0,0,1,2.09,12.23,10.56,10.56,0,0,1-19,0,12.58,12.58,0,0,1-.92-2.48,66,66,0,0,1-.2-6.92v-6h5.93C92.71,82.21,94.23,82.28,95.15,82.48Z"/><path class="cls-1" d="M54.56,96.48c-3.4,3.42-6.43,6.58-6.72,7a15.29,15.29,0,0,0-2.76,8.37A14.91,14.91,0,0,0,47.36,121a15.83,15.83,0,0,0,25,2.55,16.18,16.18,0,0,0,1.49-20c-.52-.76-12.75-13.23-13-13.23C60.77,90.29,57.94,93.08,54.56,96.48Z"/><path class="cls-2" d="M56.28,101.17c-2.46,2.48-4.65,4.76-4.86,5.1a11.13,11.13,0,0,0-2,6.06,10.78,10.78,0,0,0,1.65,6.56,11.45,11.45,0,0,0,18.07,1.84,11.71,11.71,0,0,0,1.08-14.46c-.37-.55-9.23-9.58-9.4-9.58S58.73,98.71,56.28,101.17Z"/><ellipse class="cls-3" cx="60.82" cy="60.92" rx="12.65" ry="12.66"/></g></g></svg>